<svg xmlns="http://www.w3.org/2000/svg" xmlns:xlink="http://www.w3.org/1999/xlink" width="375" viewBox="0 0 375 375" height="375" version="1.0"><defs><g id="c"><path d="M 3.90625 -7.53125 C 3.90625 -10.320312 4.726562 -12.472656 6.375 -13.984375 C 8.03125 -15.492188 10.429688 -16.25 13.578125 -16.25 C 16.578125 -16.25 18.878906 -15.492188 20.484375 -13.984375 C 22.085938 -12.472656 22.890625 -10.320312 22.890625 -7.53125 C 22.890625 -4.8125 22.0625 -2.6875 20.40625 -1.15625 C 18.757812 0.375 16.484375 1.140625 13.578125 1.140625 C 10.578125 1.140625 8.210938 0.382812 6.484375 -1.125 C 4.765625 -2.644531 3.90625 -4.78125 3.90625 -7.53125 Z M 3.90625 -7.53125"/></g><g id="a"><path d="M 61.90625 0 L 52.90625 -46.363281 L 40.769531 -46.363281 L 31.15625 -13.839844 L 21.476562 -46.363281 L 9.339844 -46.363281 L 0.339844 0 L 11.589844 0 L 17.042969 -31.976562 L 26.113281 0 L 36.136719 0 L 45.203125 -31.976562 L 50.65625 0 Z M 61.90625 0"/></g><g id="b"><path d="M 13.363281 -18.613281 C 13.363281 -18.613281 13.703125 -24.203125 20.113281 -24.203125 C 26.316406 -24.203125 26.792969 -18.613281 26.792969 -18.613281 Z M 36.613281 -15.679688 C 36.613281 -25.292969 29.042969 -30.75 19.910156 -30.75 C 9.816406 -30.75 2.386719 -24.40625 2.386719 -15 C 2.386719 -5.453125 9.546875 0.683594 19.910156 0.683594 C 27.886719 0.683594 34.292969 -3.273438 36.066406 -11.179688 L 25.636719 -11.179688 C 25.566406 -9 23.316406 -6.613281 19.703125 -6.613281 C 15.679688 -6.613281 13.226562 -10.296875 13.226562 -13.773438 L 36.542969 -13.773438 C 36.542969 -14.386719 36.613281 -15.066406 36.613281 -15.679688 Z M 36.613281 -15.679688"/></g></defs><path fill="#FFA820" d="M 202.351562 151.695312 C 202.367188 160.984375 199.605469 169.625 194.847656 176.828125 C 188.570312 186.332031 169.378906 201.261719 160.964844 207.566406 C 158.582031 209.355469 155.308594 209.351562 152.925781 207.558594 C 144.695312 201.371094 126.15625 186.949219 119.835938 177.992188 C 114.605469 170.585938 111.53125 161.539062 111.53125 151.777344 C 111.53125 126.660156 131.863281 106.300781 156.941406 106.300781 C 182.054688 106.300781 202.308594 126.550781 202.351562 151.695312 Z M 202.351562 151.695312"/><path fill="#FEAC33" d="M 145.359375 201.738281 C 147.859375 203.707031 150.382812 205.648438 152.925781 207.558594 C 155.308594 209.351562 158.582031 209.355469 160.964844 207.566406 C 163.476562 205.6875 166.945312 203.039062 170.746094 199.992188 C 165.804688 201.753906 160.484375 202.714844 154.9375 202.714844 C 151.65625 202.714844 148.453125 202.378906 145.359375 201.738281 Z M 156.941406 106.300781 C 144.871094 106.300781 133.898438 111.019531 125.765625 118.714844 C 133.785156 112.371094 143.917969 108.582031 154.9375 108.582031 C 180.933594 108.582031 202.003906 129.65625 202.003906 155.648438 C 202.003906 156.375 201.988281 157.097656 201.953125 157.816406 C 202.222656 155.785156 202.355469 153.746094 202.351562 151.695312 C 202.308594 126.550781 182.054688 106.300781 156.941406 106.300781 Z M 156.941406 106.300781"/><path fill="#FEB133" d="M 154.9375 108.582031 C 143.917969 108.582031 133.785156 112.371094 125.765625 118.714844 C 117 127.003906 111.53125 138.75 111.53125 151.777344 C 111.53125 161.539062 114.605469 170.585938 119.835938 177.992188 C 124.609375 184.757812 136.351562 194.640625 145.359375 201.738281 C 148.453125 202.378906 151.65625 202.714844 154.9375 202.714844 C 160.484375 202.714844 165.804688 201.753906 170.746094 199.992188 C 179.679688 192.835938 190.441406 183.496094 194.847656 176.828125 C 198.539062 171.234375 201.03125 164.773438 201.953125 157.816406 C 201.988281 157.097656 202.003906 156.375 202.003906 155.648438 C 202.003906 129.65625 180.933594 108.582031 154.9375 108.582031 Z M 152.933594 194.050781 C 130.503906 194.050781 112.316406 175.867188 112.316406 153.4375 C 112.316406 131.003906 130.503906 112.820312 152.933594 112.820312 C 175.367188 112.820312 193.550781 131.003906 193.550781 153.4375 C 193.550781 175.867188 175.367188 194.050781 152.933594 194.050781 Z M 152.933594 194.050781"/><path fill="#FEB633" d="M 152.933594 112.820312 C 130.503906 112.820312 112.316406 131.003906 112.316406 153.4375 C 112.316406 175.867188 130.503906 194.050781 152.933594 194.050781 C 175.367188 194.050781 193.550781 175.867188 193.550781 153.4375 C 193.550781 131.003906 175.367188 112.820312 152.933594 112.820312 Z M 150.929688 185.390625 C 132.0625 185.390625 116.761719 170.09375 116.761719 151.222656 C 116.761719 132.355469 132.0625 117.054688 150.929688 117.054688 C 169.800781 117.054688 185.097656 132.355469 185.097656 151.222656 C 185.097656 170.09375 169.800781 185.390625 150.929688 185.390625 Z M 150.929688 185.390625"/><path fill="#FFBC34" d="M 150.929688 117.054688 C 132.0625 117.054688 116.761719 132.355469 116.761719 151.222656 C 116.761719 170.09375 132.0625 185.390625 150.929688 185.390625 C 169.800781 185.390625 185.097656 170.09375 185.097656 151.222656 C 185.097656 132.355469 169.800781 117.054688 150.929688 117.054688 Z M 148.925781 176.730469 C 133.617188 176.730469 121.207031 164.320312 121.207031 149.011719 C 121.207031 133.703125 133.617188 121.292969 148.925781 121.292969 C 164.234375 121.292969 176.644531 133.703125 176.644531 149.011719 C 176.644531 164.320312 164.234375 176.730469 148.925781 176.730469 Z M 148.925781 176.730469"/><path fill="#FFC134" d="M 148.925781 121.292969 C 133.617188 121.292969 121.207031 133.703125 121.207031 149.011719 C 121.207031 164.320312 133.617188 176.730469 148.925781 176.730469 C 164.234375 176.730469 176.644531 164.320312 176.644531 149.011719 C 176.644531 133.703125 164.234375 121.292969 148.925781 121.292969 Z M 146.921875 168.066406 C 135.175781 168.066406 125.652344 158.546875 125.652344 146.800781 C 125.652344 135.050781 135.175781 125.53125 146.921875 125.53125 C 158.667969 125.53125 168.191406 135.050781 168.191406 146.796875 C 168.191406 158.546875 158.667969 168.066406 146.921875 168.066406 Z M 146.921875 168.066406"/><path fill="#FFC634" d="M 146.921875 125.53125 C 135.175781 125.53125 125.652344 135.050781 125.652344 146.796875 C 125.652344 158.546875 135.175781 168.066406 146.921875 168.066406 C 158.667969 168.066406 168.191406 158.546875 168.191406 146.796875 C 168.191406 135.050781 158.667969 125.53125 146.921875 125.53125 Z M 144.917969 159.40625 C 136.734375 159.40625 130.097656 152.769531 130.097656 144.585938 C 130.097656 136.402344 136.734375 129.765625 144.917969 129.765625 C 153.105469 129.765625 159.738281 136.402344 159.738281 144.585938 C 159.738281 152.769531 153.105469 159.40625 144.917969 159.40625 Z M 144.917969 159.40625"/><path fill="#FFCB34" d="M 130.097656 144.585938 C 130.097656 145.558594 130.191406 146.523438 130.382812 147.480469 C 130.570312 148.433594 130.851562 149.359375 131.226562 150.261719 C 131.597656 151.160156 132.054688 152.015625 132.59375 152.824219 C 133.132812 153.632812 133.75 154.382812 134.4375 155.070312 C 135.125 155.761719 135.875 156.375 136.683594 156.917969 C 137.492188 157.457031 138.347656 157.914062 139.246094 158.289062 C 140.144531 158.660156 141.070312 158.941406 142.027344 159.132812 C 142.980469 159.320312 143.945312 159.417969 144.917969 159.417969 C 145.894531 159.417969 146.855469 159.320312 147.8125 159.132812 C 148.765625 158.941406 149.691406 158.660156 150.59375 158.289062 C 151.492188 157.914062 152.347656 157.457031 153.15625 156.917969 C 153.964844 156.375 154.714844 155.761719 155.402344 155.070312 C 156.089844 154.382812 156.703125 153.632812 157.246094 152.824219 C 157.785156 152.015625 158.242188 151.160156 158.613281 150.261719 C 158.984375 149.359375 159.265625 148.433594 159.457031 147.480469 C 159.644531 146.523438 159.738281 145.558594 159.738281 144.585938 C 159.738281 143.613281 159.644531 142.648438 159.457031 141.695312 C 159.265625 140.738281 158.984375 139.8125 158.613281 138.914062 C 158.242188 138.011719 157.785156 137.160156 157.242188 136.347656 C 156.703125 135.539062 156.089844 134.792969 155.402344 134.101562 C 154.710938 133.414062 153.964844 132.800781 153.15625 132.257812 C 152.34375 131.71875 151.492188 131.261719 150.59375 130.886719 C 149.691406 130.515625 148.765625 130.234375 147.8125 130.042969 C 146.855469 129.855469 145.890625 129.757812 144.917969 129.757812 C 143.945312 129.757812 142.980469 129.855469 142.027344 130.042969 C 141.074219 130.234375 140.144531 130.515625 139.246094 130.886719 C 138.347656 131.261719 137.492188 131.71875 136.683594 132.257812 C 135.875 132.800781 135.125 133.414062 134.4375 134.101562 C 133.75 134.792969 133.136719 135.539062 132.59375 136.347656 C 132.054688 137.160156 131.597656 138.011719 131.226562 138.914062 C 130.851562 139.8125 130.574219 140.738281 130.382812 141.695312 C 130.195312 142.648438 130.097656 143.613281 130.097656 144.585938 Z M 130.097656 144.585938"/><path fill="#FFA820" d="M 156.941406 108.34375 C 162.808594 108.34375 168.488281 109.488281 173.832031 111.738281 C 178.992188 113.917969 183.625 117.039062 187.601562 121.011719 C 191.582031 124.988281 194.703125 129.625 196.886719 134.789062 C 199.148438 140.136719 200.300781 145.824219 200.308594 151.699219 C 200.324219 160.277344 197.84375 168.578125 193.140625 175.703125 C 187.007812 184.988281 167.738281 199.9375 159.738281 205.933594 C 158.929688 206.539062 157.964844 206.863281 156.953125 206.863281 C 155.933594 206.863281 154.96875 206.539062 154.152344 205.925781 C 146.402344 200.101562 127.703125 185.601562 121.503906 176.816406 C 116.316406 169.464844 113.574219 160.808594 113.574219 151.777344 C 113.574219 145.910156 114.722656 140.222656 116.984375 134.871094 C 119.167969 129.699219 122.292969 125.054688 126.277344 121.0625 C 130.261719 117.074219 134.898438 113.941406 140.0625 111.757812 C 145.410156 109.492188 151.085938 108.34375 156.941406 108.34375 M 156.941406 106.300781 C 131.863281 106.300781 111.53125 126.660156 111.53125 151.777344 C 111.53125 161.539062 114.605469 170.585938 119.835938 177.992188 C 126.15625 186.949219 144.695312 201.371094 152.925781 207.558594 C 154.117188 208.457031 155.460938 208.90625 156.953125 208.90625 C 158.4375 208.90625 159.777344 208.460938 160.964844 207.566406 C 169.378906 201.261719 188.570312 186.332031 194.847656 176.828125 C 199.605469 169.625 202.367188 160.984375 202.351562 151.695312 C 202.308594 126.550781 182.054688 106.300781 156.941406 106.300781 Z M 156.941406 106.300781"/><path fill="#FFE3B4" d="M 156.941406 129.855469 C 168.9375 129.855469 178.660156 139.578125 178.660156 151.570312 C 178.660156 163.566406 168.9375 173.289062 156.941406 173.289062 C 144.949219 173.289062 135.226562 163.566406 135.226562 151.570312 C 135.226562 139.578125 144.949219 129.855469 156.941406 129.855469 Z M 156.941406 129.855469"/><path fill="#FFF" d="M 127.375 129.160156 C 126.890625 129.160156 126.457031 129.003906 126.082031 128.695312 C 125.210938 127.980469 125.082031 126.691406 125.796875 125.820312 C 131.242188 119.171875 137.667969 115.851562 137.9375 115.714844 C 138.945312 115.199219 140.175781 115.601562 140.6875 116.605469 C 141.199219 117.609375 140.800781 118.839844 139.796875 119.351562 C 139.738281 119.382812 133.839844 122.453125 128.957031 128.410156 C 128.550781 128.910156 128.023438 129.160156 127.375 129.160156 Z M 122.804688 135.835938 C 122.421875 135.835938 122.066406 135.734375 121.738281 135.535156 C 120.777344 134.945312 120.476562 133.6875 121.066406 132.722656 L 121.730469 131.636719 C 122.320312 130.671875 123.578125 130.371094 124.542969 130.960938 C 125.503906 131.550781 125.804688 132.808594 125.214844 133.769531 L 124.550781 134.859375 C 124.164062 135.488281 123.492188 135.835938 122.804688 135.835938 Z M 122.804688 135.835938"/><g><use x="35.826" y="234.87" xmlns:xlink="http://www.w3.org/1999/xlink" xlink:href="#a" xlink:type="simple" xlink:actuate="onLoad" xlink:show="embed"/></g><g><use x="98.074" y="234.87" xmlns:xlink="http://www.w3.org/1999/xlink" xlink:href="#b" xlink:type="simple" xlink:actuate="onLoad" xlink:show="embed"/></g><path transform="matrix(.84172 0 0 .84172 154.593 176.791)" fill="none" d="M 74.323043 23.944265 L 90.022916 23.944265 L 90.022916 12.931614 L 46.441033 12.931614 L 46.441033 23.944265 L 62.16411 23.944265 L 62.16411 67.999512 L 74.323043 67.999512 Z M 115.459218 41.268424 C 117.315543 41.268424 119.097616 41.839244 120.304228 43.305741 L 120.480578 43.305741 L 120.480578 32.288449 C 119.492085 31.796523 117.891004 31.480947 116.823617 31.480947 C 112.373076 31.480947 109.291576 33.991628 107.43061 36.660096 L 107.43061 32.288449 L 95.29024 32.288449 L 95.29024 67.999512 L 107.43061 67.999512 L 107.43061 50.183428 C 107.43061 45.895315 110.91122 41.268424 115.459218 41.268424 Z M 154.084712 50.183428 C 154.084712 54.87065 150.446314 59.084509 145.582741 59.084509 C 140.719168 59.084509 137.08077 54.87065 137.08077 50.183428 C 137.08077 45.477642 140.719168 41.268424 145.582741 41.268424 C 150.446314 41.268424 154.084712 45.477642 154.084712 50.183428 Z M 166.225082 32.367343 L 154.084712 32.367343 L 154.084712 36.660096 C 150.919677 32.766453 146.394884 31.480947 141.846886 31.480947 C 131.72063 31.480947 124.109695 40.298494 124.109695 50.183428 C 124.109695 60.073002 131.72063 68.811655 141.846886 68.811655 C 146.394884 68.811655 151.652926 67.349798 154.084712 63.7114 L 154.084712 67.999512 L 166.225082 67.999512 Z M 194.162782 40.952849 C 198.372 40.952849 201.063672 43.143313 201.22146 46.623923 L 213.282935 46.623923 C 212.707474 38.358634 205.351784 31.480947 193.768312 31.480947 C 181.864625 31.480947 173.91491 39.982918 173.91491 50.183428 C 173.91491 60.388577 181.368058 68.811655 193.768312 68.811655 C 204.623176 68.811655 211.821079 62.662576 213.046254 54.712862 L 201.22146 54.712862 C 200.803786 57.956791 197.898637 59.576435 194.162782 59.576435 C 188.505629 59.576435 186.885985 54.397287 186.885985 50.262321 C 186.885985 46.210891 188.663417 40.952849 194.162782 40.952849 Z M 194.162782 40.952849" stroke="#000" stroke-width="3.037"/><g fill="#FFBD59"><use x="144.82" y="232.143" xmlns:xlink="http://www.w3.org/1999/xlink" xlink:href="#c" xlink:type="simple" xlink:actuate="onLoad" xlink:show="embed"/></g></svg>