<svg class="svg-icon" style="width: 1em; height: 1em;vertical-align: middle;fill: currentColor;overflow: hidden;" viewBox="0 0 1024 1024" version="1.1" xmlns="http://www.w3.org/2000/svg"><path d="M915.095 463.915c0.141 81.812-24.214 157.921-66.122 221.384-55.29 83.718-224.342 215.236-298.444 270.775-21.002 15.739-49.842 15.696-70.817-0.075-72.508-54.502-235.794-181.535-291.488-260.439-46.064-65.266-73.128-144.94-73.128-230.94 0-221.231 179.085-400.573 399.997-400.573 221.188 0 399.623 178.366 400.002 399.868z" fill="#FFA820" /><path d="M413.08 904.724a3732.843 3732.843 0 0 0 66.632 51.275c20.976 15.77 49.815 15.814 70.817 0.075 22.111-16.572 52.677-39.911 86.151-66.724-43.519 15.514-90.39 23.967-139.236 23.967-28.909 0.001-57.124-2.962-84.364-8.593zM515.092 64.047c-106.339 0-202.982 41.56-274.628 109.34 70.645-55.876 159.914-89.237 256.979-89.237 228.968 0 414.584 185.615 414.584 414.584 0 6.405-0.153 12.773-0.441 19.107a404.685 404.685 0 0 0 3.508-53.926c-0.378-221.502-178.813-399.868-400.002-399.868z" fill="#FEAC33" /><path d="M497.444 84.15c-97.064 0-186.334 33.361-256.979 89.237-77.194 73.028-125.369 176.494-125.369 291.233 0 86 27.064 165.674 73.128 230.94C230.29 755.157 333.73 842.204 413.08 904.724c27.24 5.631 55.455 8.594 84.363 8.594 48.846 0 95.717-8.454 139.236-23.967C715.388 826.304 810.18 744.038 848.972 685.3c32.54-49.277 54.489-106.182 62.613-167.458 0.287-6.334 0.441-12.702 0.441-19.107 0.001-228.969-185.614-414.585-414.582-414.585z m-17.652 752.87c-197.594 0-357.775-160.181-357.775-357.775S282.198 121.47 479.792 121.47s357.775 160.181 357.775 357.775S677.385 837.02 479.792 837.02z" fill="#FEB133" /><path d="M479.792 121.47c-197.594 0-357.775 160.181-357.775 357.775S282.198 837.02 479.792 837.02s357.775-160.181 357.775-357.775S677.385 121.47 479.792 121.47zM462.14 760.723c-166.219 0-300.966-134.747-300.966-300.966S295.921 158.79 462.14 158.79s300.966 134.747 300.966 300.966S628.359 760.723 462.14 760.723z" fill="#FEB633" /><path d="M462.14 158.79c-166.219 0-300.966 134.747-300.966 300.966S295.921 760.723 462.14 760.723s300.966-134.747 300.966-300.966S628.359 158.79 462.14 158.79z m-17.652 525.636c-134.845 0-244.158-109.313-244.158-244.158S309.644 196.11 444.488 196.11s244.158 109.313 244.158 244.158-109.313 244.158-244.158 244.158z" fill="#FFBC34" /><path d="M444.488 196.11c-134.845 0-244.158 109.313-244.158 244.158s109.313 244.158 244.158 244.158 244.158-109.313 244.158-244.158S579.333 196.11 444.488 196.11z m-17.652 412.019c-103.47 0-187.349-83.879-187.349-187.349s83.879-187.35 187.349-187.35 187.349 83.879 187.349 187.349-83.878 187.35-187.349 187.35z" fill="#FFC134" /><path d="M426.836 233.43c-103.47 0-187.349 83.879-187.349 187.349s83.879 187.349 187.349 187.349 187.349-83.879 187.349-187.349S530.307 233.43 426.836 233.43z m-17.651 298.401c-72.095 0-130.54-58.445-130.54-130.54s58.445-130.54 130.54-130.54 130.54 58.445 130.54 130.54-58.445 130.54-130.54 130.54z" fill="#FFC634" /><path d="M409.185 401.291m-130.54 0a130.54 130.54 0 1 0 261.08 0 130.54 130.54 0 1 0-261.08 0Z" fill="#FFCB34" /><path d="M515.092 82.047c51.662 0 101.714 10.065 148.764 29.915 45.465 19.181 86.281 46.664 121.315 81.686 35.036 35.024 62.553 75.852 81.788 121.351 19.908 47.09 30.046 97.203 30.135 148.948 0.13 75.57-21.704 148.682-63.142 211.433-54.031 81.812-223.756 213.479-294.219 266.29-7.143 5.353-15.634 8.183-24.554 8.183-8.957 0-17.481-2.85-24.654-8.242-68.276-51.321-232.975-179.044-287.597-256.43-45.686-64.73-69.834-140.999-69.834-220.561 0-51.658 10.099-101.761 30.015-148.918 19.24-45.555 46.788-86.471 81.878-121.611 35.088-35.138 75.942-62.724 121.427-81.99 47.082-19.943 97.104-30.054 148.678-30.054m0-18c-220.912 0-399.997 179.342-399.997 400.573 0 86 27.064 165.674 73.128 230.94 55.694 78.904 218.98 205.937 291.488 260.439a58.931 58.931 0 0 0 35.469 11.854 58.855 58.855 0 0 0 35.348-11.779c74.102-55.539 243.154-187.057 298.444-270.775 41.908-63.462 66.262-139.572 66.122-221.384-0.378-221.502-178.813-399.868-400.002-399.868z" fill="#FFA820" /><path d="M515.096 271.518c105.652 0 191.304 85.65 191.304 191.304 0 105.655-85.652 191.305-191.304 191.305-105.654 0-191.306-85.65-191.306-191.305 0.001-105.654 85.653-191.304 191.306-191.304z" fill="#FFE3B4" /><path d="M254.659 265.392a17.93 17.93 0 0 1-11.397-4.076c-7.69-6.3-8.817-17.641-2.517-25.331 47.965-58.55 104.563-87.804 106.949-89.02 8.856-4.519 19.696-0.999 24.212 7.858 4.513 8.849 1.003 19.678-7.836 24.201-0.52 0.267-52.491 27.303-95.477 79.775a17.966 17.966 0 0 1-13.934 6.593zM214.392 324.204a17.91 17.91 0 0 1-9.388-2.655c-8.476-5.194-11.136-16.276-5.942-24.752l5.877-9.591c5.194-8.476 16.276-11.136 24.752-5.942s11.137 16.276 5.942 24.752l-5.877 9.591c-3.396 5.541-9.309 8.597-15.364 8.597z" fill="#FFFFFF" /></svg>